<svg width="500" height="500" viewBox="0 0 500 500" fill="none" xmlns="http://www.w3.org/2000/svg">
<rect width="500" height="500" fill="url(#paint0_radial_1_16)"/>
<path d="M276.586 392.92C254.087 375.56 185.757 406.08 179.646 426.8C214.878 408.203 257.42 398.8 272.697 408.32C272.663 415.668 273.328 419.483 277.141 425.12C275.863 433.199 275.488 437.581 275.753 445L281.03 439.68L283.808 445C287.656 438.069 289.443 433.848 291.307 425.12C295.885 419.42 299.918 406.08 299.918 406.08C308.529 398.24 351.027 401.32 380.47 422.04C384.289 413.107 325.181 367.819 297.418 392.36C294.378 387.549 292.437 385.092 287.696 382C283.581 382.915 276.586 392.92 276.586 392.92Z" fill="black"/>
<path d="M141.759 213.586C150.644 166.779 291.102 89.3196 311.248 107.925C260.458 141.118 236.565 163.14 197.693 205.205L191.626 236.017L217.013 259.694L279.124 278.52C255.768 280.249 246.451 282.542 238.876 289.799C241.545 305.197 246.689 312.019 253.627 323.228L202.919 285.405L165.561 276.427C155.089 284.934 150.083 290.412 141.508 300.473C122.079 355.19 114.119 386.447 105.109 443.211C76.8837 419.115 86.5434 295.738 120.846 246.359L104.821 222.837L97.1324 217.294L106.236 215.496C112.411 210.131 120.558 209.935 141.759 213.586Z" fill="black"/>
<path d="M399.001 237.274L434.753 230.869L416.931 240.031L443.528 241.142L402.849 248.911C391.958 253.29 387.112 255.727 383.769 259.995L388.244 266.11C417.801 291.777 435.476 305.431 466.916 329.719L467.071 329.838C428.623 324.843 404.288 314.916 350.534 270.663C335.654 273.086 327.953 271.111 314.815 264.486L312.543 265.395C311.306 258.08 312.177 253.808 324.456 245.016L305.545 230.692C281.911 197.985 297.132 182.513 303.645 181.378C314.344 198.99 340.446 227.437 355.278 233.895C372.927 233.301 382.501 234.036 399.001 237.274Z" fill="black"/>
<defs>
<radialGradient id="paint0_radial_1_16" cx="0" cy="0" r="1" gradientUnits="userSpaceOnUse" gradientTransform="rotate(45.3866) scale(523.978)">
<stop stop-color="#CCEDFF"/>
<stop offset="1" stop-color="#EFEFEF"/>
</radialGradient>
</defs>
</svg>
