<svg width="500" height="500" viewBox="0 0 500 500" fill="none" xmlns="http://www.w3.org/2000/svg">
<rect width="500" height="500" fill="url(#paint0_radial_3_17)"/>
<path d="M281.5 407.5L180.5 426C204.5 385 341 357.5 381.5 420.5L281.5 407.5Z" fill="black"/>
<path d="M94.5001 315C86.261 392.975 86.9429 424.389 104.5 442.5C113.384 395.473 110.181 367.662 124.5 321L101 315L128 255.5L117.5 250.5C105.162 275.448 99.9641 289.559 94.5001 315Z" fill="black"/>
<path d="M153.5 220L141.5 214C150.183 191.67 161.857 179.206 185.5 157C241.767 119.118 279.161 103.628 323.5 99.5C271.196 126.248 244.541 142.98 206.5 179L183.5 167.5L153.5 220Z" fill="black"/>
<path d="M281.5 407.5L180.5 426C204.5 385 341 357.5 381.5 420.5L281.5 407.5Z" stroke="black"/>
<path d="M94.5001 315C86.261 392.975 86.9429 424.389 104.5 442.5C113.384 395.473 110.181 367.662 124.5 321L101 315L128 255.5L117.5 250.5C105.162 275.448 99.9641 289.559 94.5001 315Z" stroke="black"/>
<path d="M153.5 220L141.5 214C150.183 191.67 161.857 179.206 185.5 157C241.767 119.118 279.161 103.628 323.5 99.5C271.196 126.248 244.541 142.98 206.5 179L183.5 167.5L153.5 220Z" stroke="black"/>
<path d="M228.5 302L167 265.5L139 318.5L110 310L141.5 252L98.5001 232.5L112.5 205.5L156.5 228L185.5 176L211 189.5L185.5 242L241.5 274.5L228.5 302Z" fill="#970000"/>
<path d="M327 244L298 264L322 288.5L350 271.5L390 318L407.5 299.5L372.5 258.5L412.5 237.5L385.5 211L350 230.5L314 181.5L296.5 197L327 244Z" fill="#970000"/>
<defs>
<radialGradient id="paint0_radial_3_17" cx="0" cy="0" r="1" gradientUnits="userSpaceOnUse" gradientTransform="rotate(45.3866) scale(523.978)">
<stop stop-color="#CCEDFF"/>
<stop offset="1" stop-color="#EFEFEF"/>
</radialGradient>
</defs>
</svg>
